<?xml version="1.0" encoding="utf-8" ?>
<svg xmlns="http://www.w3.org/2000/svg" xmlns:xlink="http://www.w3.org/1999/xlink" width="1024" height="1024">
	<clipPath id="cl_3">
		<rect width="1024" height="1024" rx="512" ry="512"/>
	</clipPath>
	<g clip-path="url(#cl_3)">
		<path fill="#E2E2E2" d="M0 0L1024 0L1024 1024L0 1024L0 0ZM763.482 242.714C714.391 245.463 668.38 267.512 635.483 304.053C611.91 330.53 591.154 369.042 588.108 404.845L605.986 404.827L768.162 404.789C774.315 387.91 778.858 371.3 780.427 353.341C781.953 335.883 780.808 314.516 780.827 296.676C780.847 278.739 781.526 260.523 780.658 242.618C774.942 242.582 769.192 242.414 763.482 242.714ZM242.879 242.937L242.57 306.19C242.569 320.696 242.109 335.37 243.488 349.823C247.279 390.189 264.94 427.994 293.466 456.806C322.926 486.778 353.315 501.382 394.506 508.868C403.235 510.455 412.214 510.623 420.859 512.224C403.299 514.131 385.633 516.339 368.6 521.205C334.355 530.987 304.093 553.138 281.92 580.666C260.281 607.53 245.8 642.099 242.92 676.615C241.658 691.738 242.478 707.177 242.481 722.349C242.485 742.044 241.951 761.903 242.783 781.576C248.563 781.568 254.346 781.599 260.125 781.523C306.441 780.883 352.749 759.934 384.853 726.825C399.106 712.205 410.807 695.298 419.467 676.808C435.457 642.644 437.399 616.08 437.432 579.05L437.303 531.098C437.217 513.055 436.974 495.004 437.097 476.962C437.209 460.586 437.674 444.226 437.416 427.845C436.925 378.15 416.788 330.669 381.404 295.772C351.522 266.575 312.646 248.339 271.091 244.026C261.717 243.02 252.296 243.022 242.879 242.937ZM400.843 243.261C398.462 243.366 396.084 243.499 393.707 243.66C401.491 244.742 409.188 245.874 416.777 247.992C443.583 255.707 467.127 271.982 483.817 294.332C502.92 319.683 507.998 340.793 511.922 371.426L511.542 370.576L512.338 370.23C513.947 341.763 524.368 314.501 542.159 292.221C566.491 263.917 593.965 248.423 630.97 243.401C621.248 242.596 611.177 243.112 601.404 243.091L545.156 243.038C497.082 243.053 448.904 242.28 400.843 243.261ZM780.274 373.44C774.116 416.703 746.774 456.991 712.278 482.989C693.862 496.867 672.14 505.536 649.618 509.991C643.994 511.103 637.498 510.704 632.12 512.307L632.476 512.348C654.195 513.83 676.147 512.617 697.903 512.422L780.986 512.246L780.868 419.134C780.841 404.96 781.423 390.593 780.906 376.452C780.871 375.503 780.9 374.166 780.274 373.44ZM449.129 513.209L449.515 513.334C454.534 514.925 459.724 515.824 464.728 517.534C479.945 522.736 493.366 533.236 500.92 547.556C508.139 561.239 510.322 575.129 512.02 590.297C513.68 569.652 519.324 553.285 532.907 537.381C548.016 521.818 562.534 516.248 583.835 513.733C555.015 512.252 525.766 512.987 496.889 512.98L467.917 512.961C461.733 512.938 455.285 512.592 449.129 513.209ZM587.144 513.578C587.399 533.54 587.53 553.503 587.538 573.466C587.558 590.182 586.864 607.02 589.155 623.625C594.569 662.859 614.138 700.915 642.343 728.662C681.438 767.123 727.472 781.689 781.296 781.945L781.196 719.001C781.219 702.326 781.974 685.133 780.19 668.543C776.126 630.736 757.321 594.13 730.775 567.225C724.136 560.496 716.808 554.716 709.217 549.12C671.878 521.598 632.432 515.383 587.144 513.578ZM512.262 651.175C511.096 660.679 510.302 670.232 508.132 679.581C500.973 709.277 483.992 735.683 459.943 754.517C439.95 770.183 417.835 778.424 392.746 781.112C404.396 782.367 417.129 781.273 428.916 781.28L511.25 781.121L587.226 781.213C601.133 781.277 615.165 781.872 629.052 781.311C622.234 780.086 615.454 779.081 608.775 777.175C577.433 768.23 552.282 748.103 533.798 721.656C519.089 700.611 514.154 676.276 512.262 651.175Z"/>
		<path d="M588.108 404.845C591.154 369.042 611.91 330.53 635.483 304.053C668.38 267.512 714.391 245.463 763.482 242.714C769.192 242.414 774.942 242.582 780.658 242.618C781.526 260.523 780.847 278.739 780.827 296.676C780.808 314.516 781.953 335.883 780.427 353.341C778.858 371.3 774.315 387.91 768.162 404.789L605.986 404.827L588.108 404.845Z"/>
		<path d="M420.859 512.224C412.214 510.623 403.235 510.455 394.506 508.868C353.315 501.382 322.926 486.778 293.466 456.806C264.94 427.994 247.279 390.189 243.488 349.823C242.109 335.37 242.569 320.696 242.57 306.19L242.879 242.937C252.296 243.022 261.717 243.02 271.091 244.026C312.646 248.339 351.522 266.575 381.404 295.772C416.788 330.669 436.925 378.15 437.416 427.845C437.674 444.226 437.209 460.586 437.097 476.962C436.974 495.004 437.217 513.055 437.303 531.098L437.432 579.05C437.399 616.08 435.457 642.644 419.467 676.808C410.807 695.298 399.106 712.205 384.853 726.825C352.749 759.934 306.441 780.883 260.125 781.523C254.346 781.599 248.563 781.568 242.783 781.576C241.951 761.903 242.485 742.044 242.481 722.349C242.478 707.177 241.658 691.738 242.92 676.615C245.8 642.099 260.281 607.53 281.92 580.666C304.093 553.138 334.355 530.987 368.6 521.205C385.633 516.339 403.299 514.131 420.859 512.224Z"/>
		<path d="M393.707 243.66C396.084 243.499 398.462 243.366 400.843 243.261C448.904 242.28 497.082 243.053 545.156 243.038L601.404 243.091C611.177 243.112 621.248 242.596 630.97 243.401C593.965 248.423 566.491 263.917 542.159 292.221C524.368 314.501 513.947 341.763 512.338 370.23L511.542 370.576L511.922 371.426C507.998 340.793 502.92 319.683 483.817 294.332C467.127 271.982 443.583 255.707 416.777 247.992C409.188 245.874 401.491 244.742 393.707 243.66Z"/>
		<path d="M632.476 512.348L632.12 512.307C637.498 510.704 643.994 511.103 649.618 509.991C672.14 505.536 693.862 496.867 712.278 482.989C746.774 456.991 774.116 416.703 780.274 373.44C780.9 374.166 780.871 375.503 780.906 376.452C781.423 390.593 780.841 404.96 780.868 419.134L780.986 512.246L697.903 512.422C676.147 512.617 654.195 513.83 632.476 512.348Z"/>
		<path d="M512.02 590.297C510.322 575.129 508.139 561.239 500.92 547.556C493.366 533.236 479.945 522.736 464.728 517.534C459.724 515.824 454.534 514.925 449.515 513.334L449.129 513.209C455.285 512.592 461.733 512.938 467.917 512.961L496.889 512.98C525.766 512.987 555.015 512.252 583.835 513.733C562.534 516.248 548.016 521.818 532.907 537.381C519.324 553.285 513.68 569.652 512.02 590.297Z"/>
		<path d="M781.296 781.945C727.472 781.689 681.438 767.123 642.343 728.662C614.138 700.915 594.569 662.859 589.155 623.625C586.864 607.02 587.558 590.182 587.538 573.466C587.53 553.503 587.399 533.54 587.144 513.578C632.432 515.383 671.878 521.598 709.217 549.12C716.808 554.716 724.136 560.496 730.775 567.225C757.321 594.13 776.126 630.736 780.19 668.543C781.974 685.133 781.219 702.326 781.196 719.001L781.296 781.945Z"/>
		<path d="M392.746 781.112C417.835 778.424 439.95 770.183 459.943 754.517C483.992 735.683 500.973 709.277 508.132 679.581C510.302 670.232 511.096 660.679 512.262 651.175C514.154 676.276 519.089 700.611 533.798 721.656C552.282 748.103 577.433 768.23 608.775 777.175C615.454 779.081 622.234 780.086 629.052 781.311C615.165 781.872 601.133 781.277 587.226 781.213L511.25 781.121L428.916 781.28C417.129 781.273 404.396 782.367 392.746 781.112Z"/>
	</g>
</svg>
